<svg id="Capa_1" enable-background="new 0 0 512 512" height="512" viewBox="0 0 512 512" width="512" xmlns="http://www.w3.org/2000/svg"><g><path d="m497 106.715h-482l-15 15v375.285c0 8.284 6.716 15 15 15h482c8.284 0 15-6.716 15-15v-375.285z" fill="#edf5ff"/><path d="m256 106.715v405.285h241c8.284 0 15-6.716 15-15v-375.285l-15-15z" fill="#d7e9ff"/><path d="m497 0h-482c-8.284 0-15 6.716-15 15v106.715h512v-106.715c0-8.284-6.716-15-15-15z" fill="#47568c"/><path d="m497 0h-482c-8.284 0-15 6.716-15 15v106.715h512v-106.715c0-8.284-6.716-15-15-15z" fill="#47419b"/><path d="m497 0h-241v121.715h256v-106.715c0-8.284-6.716-15-15-15z" fill="#2c3b73"/><path d="m497 0h-106.715v121.715h121.715v-106.715c0-8.284-6.716-15-15-15z" fill="#615ad3"/><g><g><path d="m170.579 405.372c-3.839 0-7.678-1.464-10.606-4.394l-74.158-74.159c-2.829-2.829-4.411-6.671-4.394-10.672s1.633-7.829 4.486-10.633l74.158-72.869c5.911-5.807 15.408-5.722 21.213.186 5.807 5.909 5.723 15.406-.186 21.212l-63.365 62.263 63.458 63.459c5.858 5.858 5.858 15.355 0 21.213-2.928 2.929-6.768 4.393-10.606 4.394z" fill="#615ad3"/></g><g><path d="m341.422 405.372c-3.884 0-7.764-1.498-10.7-4.487-5.807-5.909-5.723-15.406.186-21.212l63.365-62.263-63.458-63.459c-5.858-5.858-5.858-15.355 0-21.213s15.356-5.858 21.213 0l74.158 74.159c2.829 2.829 4.411 6.671 4.394 10.672s-1.633 7.829-4.486 10.633l-74.158 72.869c-2.922 2.869-6.72 4.301-10.514 4.301z" fill="#47419b"/></g></g><path d="m287.083 229.206c-7.808-2.769-16.382 1.316-19.151 9.124l-52.139 147.028c-2.769 7.808 1.316 16.382 9.124 19.15 1.658.588 3.35.867 5.014.867 6.173 0 11.956-3.841 14.138-9.991l52.139-147.028c2.768-7.807-1.317-16.381-9.125-19.15z" fill="#615ad3"/><path d="m287.083 229.206c-7.808-2.769-16.382 1.316-19.151 9.124l-11.932 33.647v89.761l40.207-113.382c2.769-7.807-1.316-16.381-9.124-19.15z" fill="#47419b"/></g></svg>