<svg id="Capa_1" enable-background="new 0 0 512.086 512.086" height="512" viewBox="0 0 512.086 512.086" width="512" xmlns="http://www.w3.org/2000/svg"><g><path d="m315.891 414.094h-125.104c-27.017 0-48.996 21.979-48.996 48.996s21.979 48.996 48.996 48.996h125.104c27.017 0 48.996-21.979 48.996-48.996s-21.98-48.996-48.996-48.996z" fill="#edf5ff"/><path d="m315.891 414.094h-59.545v97.992h59.545c27.017 0 48.996-21.979 48.996-48.996s-21.98-48.996-48.996-48.996z" fill="#d7e9ff"/><path d="m392.692 75.443c-16.124-25.677-39.082-46.21-66.392-59.38-44.248-21.34-95.042-21.421-139.363-.223l-.683.326c-27.435 13.122-50.507 33.657-66.721 59.386s-24.785 55.402-24.785 85.813v29.043c0 51.131 24.12 98.859 64.92 129.256v64.1c0 8.284 6.716 15 15 15h162.751c8.284 0 15-6.716 15-15v-64.1c40.8-30.396 64.92-78.125 64.92-129.256v-29.372c-.001-30.318-8.523-59.916-24.647-85.593z" fill="#ffd830"/><path d="m326.3 16.063c-22.217-10.715-46.085-16.066-69.955-16.059v398.76h81.073c8.284 0 15-6.716 15-15v-64.1c40.8-30.396 64.92-78.125 64.92-129.256v-29.372c0-30.319-8.522-59.917-24.646-85.594s-39.082-46.209-66.392-59.379z" fill="#ffb44b"/><path d="m255.968 194.097-33.35-48.196c-4.713-6.813-14.058-8.514-20.87-3.8s-8.514 14.058-3.8 20.87l42.792 61.842v130.1c0 8.284 6.716 15 15 15l11.627-144.756z" fill="#edf5ff"/><path d="m311.073 142.191c-6.762-4.786-16.124-3.184-20.909 3.58l-33.818 47.792v176.32c8.001-.32 14.395-6.89 14.395-14.969v-129.757l43.913-62.058c4.784-6.761 3.181-16.123-3.581-20.908z" fill="#d7e9ff"/><path d="m338.555 346.1h-170.432c-27.017 0-48.996 21.98-48.996 48.997s21.979 48.996 48.996 48.996h170.432c27.017 0 48.996-21.98 48.996-48.997s-21.98-48.996-48.996-48.996z" fill="#d7e9ff"/><path d="m338.555 346.1h-82.209v97.993h82.209c27.017 0 48.996-21.98 48.996-48.997s-21.98-48.996-48.996-48.996z" fill="#b0d5f7"/></g></svg>