<svg id="Capa_1" enable-background="new 0 0 512 512" height="512" viewBox="0 0 512 512" width="512" xmlns="http://www.w3.org/2000/svg"><g><path d="m319.722 375.62h-63.367c-8.284 0-15-6.712-15-14.992v-169.915h-52.617c-8.284 0-15-6.712-15-14.992s6.716-14.992 15-14.992h67.617c8.285 0 15 6.712 15 14.992v169.915h48.366c8.284 0 15 6.712 15 14.992s-6.715 14.992-14.999 14.992z" fill="#47419b"/><path d="m319.722 345.636h-48.366v-169.915c0-8.28-6.716-14.992-15-14.992h-.356v214.873c.119.003.235.018.355.018h63.367c8.284 0 15-6.712 15-14.992s-6.716-14.992-15-14.992z" fill="#2c3b73"/><g><path d="m497 187.444h-168.095c-8.284 0-15 6.712-15 14.992v229.172c0 8.28 6.716 14.992 15 14.992h168.095c8.284 0 15-6.712 15-14.992v-229.172c0-8.279-6.716-14.992-15-14.992z" fill="#edf5ff"/><path d="m497 187.444h-84.048v259.157h84.048c8.284 0 15-6.712 15-14.992v-229.173c0-8.279-6.716-14.992-15-14.992z" fill="#d7e9ff"/><path d="m313.905 431.609v65.399c0 8.28 6.716 14.992 15 14.992h168.095c8.284 0 15-6.712 15-14.992v-65.399z" fill="#615ad3"/><g fill="#47419b"><path d="m434.077 375.888h-42.25c-8.284 0-15-6.712-15-14.992s6.716-14.992 15-14.992h42.25c8.284 0 15 6.712 15 14.992s-6.716 14.992-15 14.992z"/><path d="m434.077 288.142h-42.25c-8.284 0-15-6.712-15-14.992s6.716-14.992 15-14.992h42.25c8.284 0 15 6.712 15 14.992s-6.716 14.992-15 14.992z"/><path d="m412.952 512h84.048c8.284 0 15-6.712 15-14.992v-65.399h-99.048z"/></g><path d="m434.077 345.904h-21.125v29.984h21.125c8.284 0 15-6.712 15-14.992s-6.716-14.992-15-14.992z" fill="#2c3b73"/><path d="m434.077 258.157h-21.125v29.984h21.125c8.284 0 15-6.712 15-14.992s-6.716-14.992-15-14.992z" fill="#2c3b73"/></g><g><path d="m183.095 0h-168.095c-8.284 0-15 6.712-15 14.992v229.172c0 8.28 6.716 14.992 15 14.992h168.095c8.284 0 15-6.712 15-14.992v-229.172c0-8.28-6.715-14.992-15-14.992z" fill="#edf5ff"/><path d="m183.095 0h-84.047v259.157h84.048c8.284 0 15-6.712 15-14.992v-229.173c-.001-8.28-6.716-14.992-15.001-14.992z" fill="#d7e9ff"/><path d="m0 244.165v65.399c0 8.28 6.716 14.992 15 14.992h168.095c8.284 0 15-6.712 15-14.992v-65.399z" fill="#615ad3"/><path d="m120.172 188.444h-42.25c-8.284 0-15-6.712-15-14.992s6.716-14.992 15-14.992h42.25c8.284 0 15 6.712 15 14.992s-6.715 14.992-15 14.992z" fill="#47419b"/><path d="m120.172 100.697h-42.25c-8.284 0-15-6.712-15-14.992s6.716-14.992 15-14.992h42.25c8.284 0 15 6.712 15 14.992s-6.715 14.992-15 14.992z" fill="#47568c"/><path d="m99.048 324.556h84.048c8.284 0 15-6.712 15-14.992v-65.399h-99.048z" fill="#47419b"/><g fill="#2c3b73"><path d="m120.172 158.46h-21.124v29.984h21.125c8.284 0 15-6.712 15-14.992-.001-8.28-6.716-14.992-15.001-14.992z"/><path d="m120.172 70.713h-21.124v29.984h21.125c8.284 0 15-6.712 15-14.992s-6.716-14.992-15.001-14.992z"/></g></g></g></svg>